<svg xmlns="http://www.w3.org/2000/svg" viewBox="0 0 48 48">
<defs>
  <style>
    path, polygon, polyline, rect, circle, ellipse, line {vector-effect: non-scaling-stroke}
  </style>
</defs>
  <g id="Layer_2" data-name="Layer 2">
    <g id="Layer_1-2" data-name="Layer 1">
      <g>
        <circle cx="24" cy="24" r="24" fill="#231f20"/>
        <g>
          <path d="M31.93593,14.03982a1.55643,1.55643,0,0,0-2.43259.43281,1.55644,1.55644,0,0,0-2.43259-.43281,1.632,1.632,0,0,0-.00342,2.27239,18.33091,18.33091,0,0,0,2.3131,2.14452.19621.19621,0,0,0,.24582,0,18.33091,18.33091,0,0,0,2.3131-2.14452A1.632,1.632,0,0,0,31.93593,14.03982Z" fill="none" stroke="#fff" stroke-linecap="round" stroke-linejoin="round"/>
          <line x1="14.52429" y1="15.54941" x2="14.52429" y2="17.54941" fill="none" stroke="#fff" stroke-linecap="round" stroke-linejoin="round"/>
          <line x1="15.52429" y1="16.54941" x2="13.52429" y2="16.54941" fill="none" stroke="#fff" stroke-linecap="round" stroke-linejoin="round"/>
          <line x1="21.2314" y1="16.8423" x2="19.81718" y2="18.25651" fill="none" stroke="#fff" stroke-linecap="round" stroke-linejoin="round"/>
          <line x1="21.2314" y1="18.25651" x2="19.81718" y2="16.8423" fill="none" stroke="#fff" stroke-linecap="round" stroke-linejoin="round"/>
          <line x1="17.57358" y1="14.54941" x2="17.59286" y2="14.54941" fill="none" stroke="#fff" stroke-linecap="round" stroke-linejoin="round"/>
          <line x1="33.57358" y1="19.54941" x2="33.59286" y2="19.54941" fill="none" stroke="#fff" stroke-linecap="round" stroke-linejoin="round"/>
          <path d="M31.02431,30.55529c2.38607.26794,4.5,1.51858,4.5,3.9447h-3" fill="none" stroke="#fff" stroke-linecap="round" stroke-linejoin="round"/>
          <path d="M17.02426,30.55529c-2.38607.26794-4.5,1.51858-4.5,3.9447h3" fill="none" stroke="#fff" stroke-linecap="round" stroke-linejoin="round"/>
          <path d="M29.52429,34.5H17.59286a5,5,0,0,1,5-5H25.5243a5,5,0,0,1,5,5Z" fill="none" stroke="#fff" stroke-linecap="round" stroke-linejoin="round"/>
          <circle cx="31.02429" cy="26" r="2.5" fill="none" stroke="#fff"/>
          <circle cx="24.02429" cy="24" r="2.5" fill="none" stroke="#fff"/>
          <circle cx="17.02429" cy="26" r="2.5" fill="none" stroke="#fff"/>
        </g>
      </g>
    </g>
  </g>
</svg>
