<svg width="23" height="24" fill="none" xmlns="http://www.w3.org/2000/svg"><path d="M12.974.433a.7.7 0 0 1 .854-.349l8.625 2.971c.366.126.56.524.425.914l-.017.042-2.162 4.667.001 10.388a.7.7 0 0 1-.433.647l-8.8 3.635a.7.7 0 0 1-.479.02.701.701 0 0 1-.473-.037l-8.6-3.822a.7.7 0 0 1-.415-.64V8.58l-.002-.005L.16 4.562a.7.7 0 0 1 .918-.874l6.126 2.383 3.542-1.181L12.974.433zm6.727 9.199l-8.2 3.209v9.41l8.2-3.387V9.632zM2.499 15.02v1.9l8 3.556v-1.9l-8-3.556zm13.699-3.053c.005-.007.012 0 .007.007-.783 1.364.289 3.942.289 5.188 0 1.057-.438 1.938-1.029 2.787-.016.022-.025.022-.01-.015.801-1.671-.459-3.627-.198-5.499.167-1.195.684-2.128.94-2.468zM2.499 10.721v1.8l8 3.556v-1.8l-8-3.556zm8.32-4.799l-2.155.716.926.36a.7.7 0 0 1 .379.352l.038.1 1.315 4.386 7.274-2.846-7.573-2.945a.7.7 0 0 1-.204-.123zM1.31 4.852l1.093 3.28 7.803 3.468-1.116-3.723-7.78-3.025zm12.44-3.737l-2.059 4.117 8.052 3.13 2.07-4.47-8.063-2.777z" fill="#000"/></svg>