<svg xmlns="http://www.w3.org/2000/svg" viewBox="0 0 48 48">
<defs>
  <style>
    path, polygon, polyline, rect, circle, ellipse, line {vector-effect: non-scaling-stroke}
  </style>
</defs>
  <g id="Layer_2" data-name="Layer 2">
    <g id="Layer_1-2" data-name="Layer 1">
      <g>
        <circle cx="24" cy="24" r="24" fill="#c6b9bd"/>
        <g>
          <rect x="12.5" y="12.5" width="23" height="23" rx="6.72369" fill="none" stroke="#fff" stroke-linecap="round" stroke-linejoin="round"/>
          <polyline points="24.98 12.5 22.5 18.5 19.5 20.5" fill="none" stroke="#fff" stroke-linecap="round" stroke-linejoin="round"/>
          <polyline points="27.756 12.5 28.5 15.5 30.5 16.5 29.5 19.5 29.5 21.5" fill="none" stroke="#fff" stroke-linecap="round" stroke-linejoin="round"/>
          <polyline points="25.5 27.5 23.5 28.5 24.5 32.5 24 35.5" fill="none" stroke="#fff" stroke-linecap="round" stroke-linejoin="round"/>
          <polyline points="17.5 17.5 15.5 20.5 16.5 25.5 12.5 27.198" fill="none" stroke="#fff" stroke-linecap="round" stroke-linejoin="round"/>
          <polyline points="22.5 24.5 19.5 26.5 17.5 30.5 12.725 30.5" fill="none" stroke="#fff" stroke-linecap="round" stroke-linejoin="round"/>
          <polyline points="31.5 27.5 29.5 29.5 28.5 35.5" fill="none" stroke="#fff" stroke-linecap="round" stroke-linejoin="round"/>
          <polyline points="35.5 19.5 32.5 21.5 32.5 24.5 35.5 28.166" fill="none" stroke="#fff" stroke-linecap="round" stroke-linejoin="round"/>
        </g>
      </g>
    </g>
  </g>
</svg>
