<svg xmlns="http://www.w3.org/2000/svg" viewBox="0 0 48 48">
<defs>
  <style>
    path, polygon, polyline, rect, circle, ellipse, line {vector-effect: non-scaling-stroke}
  </style>
</defs>
  <g id="Layer_2" data-name="Layer 2">
    <g id="Layer_1-2" data-name="Layer 1">
      <g>
        <circle cx="24" cy="24" r="24" fill="#992a43"/>
        <g>
          <path d="M29.5,32.5v1a2,2,0,0,1-2,2h-7a2,2,0,0,1-2-2v-1" fill="none" stroke="#fff" stroke-linecap="round" stroke-linejoin="round"/>
          <path d="M12.5,22.5v1c0,5.52283,5.47717,10,11,10h1c5.52283,0,11-4.47717,11-10v-1Z" fill="none" stroke="#fff" stroke-linecap="round" stroke-linejoin="round"/>
          <path d="M22.63885,22.5l8.32042-7.44459A2.11419,2.11419,0,0,1,33.864,15.136h0a2.11419,2.11419,0,0,1,.08063,2.90469L29.95471,22.5" fill="none" stroke="#fff" stroke-linecap="round" stroke-linejoin="round"/>
        </g>
      </g>
    </g>
  </g>
</svg>
