<svg xmlns="http://www.w3.org/2000/svg" viewBox="0 0 48 48">
<defs>
  <style>
    path, polygon, polyline, rect, circle, ellipse, line {vector-effect: non-scaling-stroke}
  </style>
</defs>
  <g id="Layer_2" data-name="Layer 2">
    <g id="Layer_1-2" data-name="Layer 1">
      <g>
        <circle cx="24" cy="24" r="24" fill="#cf142c"/>
        <g>
          <path d="M24.00275,30.59337c1.25407.0806,5.56522.15633,7.07984-2.47166,1.48646-2.57912,5.40973-3.79127,5.40973-3.79127s-1.28558.47813-4.58121-2.97893c-5.01984-5.26572-7.90836-.69852-7.90836-.69852s-2.88852-4.5672-7.90836.69852c-3.29564,3.45706-4.58121,2.97893-4.58121,2.97893s3.92327,1.21215,5.40973,3.79127C18.43753,30.7497,22.74868,30.674,24.00275,30.59337Z" fill="none" stroke="#fff" stroke-linecap="round" stroke-linejoin="round"/>
          <path d="M36.49232,24.33044s-5.92146-1.34011-9.38174-.18488a24.0591,24.0591,0,0,1-3.10783.72538,24.0591,24.0591,0,0,1-3.10783-.72538c-3.46028-1.15523-9.38174.18488-9.38174.18488" fill="none" stroke="#fff" stroke-linecap="round" stroke-linejoin="round"/>
        </g>
      </g>
    </g>
  </g>
</svg>
