<svg width="38" height="9" xmlns="http://www.w3.org/2000/svg"><path d="M36.794 6.646a1.07 1.07 0 00-1.066 1.076 1.07 1.07 0 001.066 1.076c.588 0 1.066-.482 1.066-1.076a1.07 1.07 0 00-1.066-1.076zm-3.508-.831c0-.814-.689-1.473-1.539-1.473s-1.539.66-1.539 1.473c0 .813.69 1.472 1.54 1.472.85 0 1.538-.659 1.538-1.472zm.006-2.863h1.698v5.725h-1.698V8.31a2.96 2.96 0 01-1.684.524c-1.653 0-2.993-1.352-2.993-3.02 0-1.669 1.34-3.02 2.993-3.02.625 0 1.204.193 1.684.524v-.367zM19.7 3.698v-.745h-1.739v5.724h1.743V6.004c0-.902.968-1.386 1.64-1.386h.02V2.954c-.69 0-1.323.298-1.664.745zm-4.332 2.117c0-.814-.689-1.473-1.539-1.473s-1.539.66-1.539 1.473c0 .813.69 1.472 1.54 1.472.85 0 1.538-.659 1.538-1.472zm.006-2.863h1.699v5.725h-1.699V8.31c-.48.33-1.059.524-1.684.524-1.653 0-2.993-1.352-2.993-3.02 0-1.669 1.34-3.02 2.993-3.02.625 0 1.204.193 1.684.524v-.367zM25.597 2.8c-.678 0-1.32.212-1.75.798v-.644h-1.691v5.724h1.712V5.669c0-.87.578-1.297 1.275-1.297.746 0 1.176.45 1.176 1.285v3.02h1.696v-3.64c0-1.333-1.05-2.238-2.418-2.238zM8.223 8.677h1.778V.402H8.223v8.275zm-7.81.002h1.883V.4H.414V8.68zM6.999.4c0 1.792-.692 3.46-1.926 4.699l2.602 3.58H5.35L2.522 4.79l.73-.552A4.768 4.768 0 005.155.4h1.842z" fill="#0A0B09" fill-rule="nonzero"/></svg>